<svg width="414" height="414" viewBox="0 0 414 414" fill="none" xmlns="http://www.w3.org/2000/svg">
<path d="M206.859 58.8608L268.292 94.2509L299.441 76.3597L206.859 23L52.2142 112.142L83.2061 130.033L206.859 58.8608Z" fill="#0B5EFF"/>
<path d="M330.434 94.251L206.86 165.423L145.426 130.033L114.356 147.924L206.86 201.206L361.583 112.142L330.434 94.251Z" fill="#0B5EFF"/>
<path d="M77.0706 213.997L46 196.106V302.668L200.645 391.81V356.028L77.0706 284.777V213.997Z" fill="#0B5EFF"/>
<path d="M46 160.322L169.574 231.494V302.274L200.645 320.244V213.603L46 124.54V160.322Z" fill="#0B5EFF"/>
<path d="M305.656 196.105V160.323L213.074 213.604V391.809L244.145 373.918V231.495L305.656 196.105Z" fill="#0B5EFF"/>
<path d="M336.648 142.431V284.776L275.215 320.244V356.026L367.797 302.667V124.54L336.648 142.431Z" fill="#0B5EFF"/>
</svg>
